<svg width="250" height="400" viewBox="0 0 250 400" fill="none" xmlns="http://www.w3.org/2000/svg">
<path d="M159.114 243.817L107.266 269.741V254.575L144.985 236.688L107.266 218.8V203.634L159.114 229.558H198V243.817H159.114ZM198 217.887H107.266V162.928H120.746V203.628H144.208V170.834H157.688V203.628H198V217.887ZM165.336 172.319H107.266V158.061H165.984C178.427 158.061 185.556 151.709 185.556 139.655C185.556 127.6 178.427 121.249 165.984 121.249H107.266V106.99H165.336C175.965 106.99 184.26 110.101 190.223 116.193C196.056 122.286 199.037 130.063 199.037 139.655C199.037 149.247 196.056 157.153 190.093 163.246C184.131 169.338 175.835 172.319 165.336 172.319Z" fill="black"/>
<path d="M96 107V263.73C65.0816 267.971 12.1902 263.978 47.9714 214.073" stroke="black" stroke-width="13.904"/>
</svg>
